<svg width="320" height="220" viewBox="0 0 320 220" fill="none" xmlns="http://www.w3.org/2000/svg">
  <defs>
    <linearGradient id="dg" x1="0" y1="0" x2="1" y2="1">
      <stop offset="0" stop-color="#12A594"/>
      <stop offset="1" stop-color="#0B4F7F"/>
    </linearGradient>
  </defs>

  <rect x="16" y="16" width="288" height="188" rx="24" fill="#F4FBFE" stroke="#C8DDEB"/>
  <circle cx="78" cy="66" r="22" fill="#D9F5EF"/>
  <circle cx="244" cy="156" r="30" fill="#E2EEF8"/>

  <rect x="78" y="44" width="164" height="16" rx="8" fill="#CDE3F2"/>
  <rect x="102" y="66" width="116" height="10" rx="5" fill="#BDD7E9"/>

  <circle cx="160" cy="130" r="46" fill="white" stroke="#BCD4E6" stroke-width="2"/>
  <circle cx="160" cy="130" r="33" fill="#F0FAF7" stroke="url(#dg)" stroke-width="3"/>

  <path d="M145 128L156 138L176 118" stroke="#0B4F7F" stroke-width="6" stroke-linecap="round" stroke-linejoin="round"/>
  <path d="M160 96V82" stroke="#12A594" stroke-width="5" stroke-linecap="round"/>
  <path d="M160 178V164" stroke="#12A594" stroke-width="5" stroke-linecap="round"/>
  <path d="M194 130H208" stroke="#12A594" stroke-width="5" stroke-linecap="round"/>
  <path d="M112 130H126" stroke="#12A594" stroke-width="5" stroke-linecap="round"/>

  <path d="M62 126C62 112 73 101 87 101C101 101 112 112 112 126C112 140 101 151 87 151C73 151 62 140 62 126Z" fill="#12A594" fill-opacity="0.16"/>
  <circle cx="87" cy="126" r="15" fill="#12A594"/>
  <path d="M81 126L86 131L94 122" stroke="white" stroke-width="3" stroke-linecap="round" stroke-linejoin="round"/>
</svg>
